<?xml version="1.0" standalone="no"?>
<!DOCTYPE svg PUBLIC "-//W3C//DTD SVG 20010904//EN"
 "http://www.w3.org/TR/2001/REC-SVG-20010904/DTD/svg10.dtd">
<svg version="1.0" xmlns="http://www.w3.org/2000/svg"
 width="300.000000pt" height="300.000000pt" viewBox="0 0 300.000000 300.000000"
 preserveAspectRatio="xMidYMid meet">
<metadata>
Created by potrace 1.14, written by Peter Selinger 2001-2017
</metadata>
<g transform="translate(0.000000,300.000000) scale(0.100000,-0.100000)"
fill="#000000" stroke="none">
<path d="M1350 2993 c-147 -22 -223 -38 -299 -63 -97 -31 -247 -96 -272 -117
-8 -7 -18 -13 -22 -13 -7 0 -144 -88 -168 -108 -104 -85 -208 -190 -274 -278
-25 -32 -48 -63 -53 -69 -25 -31 -88 -146 -123 -222 -22 -48 -45 -97 -50 -108
-5 -11 -11 -31 -14 -44 -2 -13 -11 -45 -19 -70 -8 -25 -17 -59 -20 -76 -3 -16
-8 -41 -11 -55 -13 -49 -17 -107 -19 -267 -2 -125 2 -183 16 -255 10 -51 20
-102 22 -113 26 -129 151 -399 237 -509 133 -173 252 -284 407 -385 44 -29 84
-53 89 -54 4 0 28 -12 53 -26 25 -15 70 -36 100 -48 88 -34 95 -36 100 -38 3
0 30 -8 60 -18 133 -39 269 -56 435 -52 88 2 174 6 190 9 17 4 53 11 80 17 28
6 61 13 75 15 74 14 314 110 351 141 8 7 19 13 22 13 9 0 142 87 176 115 100
81 167 148 249 250 32 39 60 72 65 73 4 2 7 8 7 13 0 5 17 34 37 66 81 127
167 341 189 473 3 14 7 32 9 40 12 40 20 147 20 260 0 118 -10 264 -19 278 -2
4 -7 23 -10 42 -27 168 -141 418 -265 584 -61 80 -184 214 -237 256 -56 45
-163 120 -169 120 -5 0 -16 6 -24 14 -45 39 -292 146 -374 162 -10 2 -27 6
-37 9 -26 8 -60 16 -100 22 -19 3 -53 8 -75 12 -42 8 -292 11 -335 4z m320
-127 c48 -5 69 -9 141 -26 26 -6 53 -12 60 -13 8 -2 19 -5 24 -8 6 -4 28 -12
50 -19 81 -24 261 -112 301 -147 15 -13 31 -23 35 -23 4 0 35 -23 69 -51 67
-56 68 -68 6 -90 -54 -20 -73 -79 -25 -79 10 0 18 -3 17 -7 0 -5 2 -16 6 -25
6 -14 12 -15 32 -6 28 13 31 11 36 -22 3 -26 4 -26 -83 -29 -19 -1 -34 -12
-54 -41 -15 -21 -30 -39 -34 -38 -40 5 -59 -4 -64 -29 -4 -17 -1 -32 7 -38 7
-5 13 -18 13 -27 0 -15 -8 -17 -57 -11 -50 5 -60 3 -79 -16 -17 -17 -20 -29
-15 -58 7 -47 13 -53 55 -61 70 -14 91 -5 133 59 31 47 44 59 65 59 15 0 36 7
48 15 20 14 22 14 28 -5 3 -11 13 -20 21 -20 8 0 14 -4 14 -10 0 -5 7 -10 15
-10 8 0 15 -4 15 -9 0 -5 9 -11 21 -14 25 -7 20 -32 -6 -32 -25 0 -30 -21 -8
-27 29 -8 62 8 59 29 -2 10 1 21 7 24 5 4 -9 19 -31 33 -49 31 -71 64 -51 77
32 20 113 -41 117 -87 2 -25 36 -74 52 -74 4 0 11 17 16 37 12 48 39 56 47 14
8 -41 40 -71 69 -66 13 3 28 1 35 -3 13 -8 44 -92 38 -102 -2 -4 -28 -8 -57
-9 -43 -1 -60 4 -88 24 -33 25 -63 31 -94 19 -8 -3 -12 -12 -10 -19 9 -21 -12
-26 -48 -11 -18 8 -52 19 -75 25 -29 8 -43 18 -44 29 -1 9 -2 22 -4 27 -1 6
-3 16 -3 23 -2 9 -16 11 -54 6 -94 -9 -105 -12 -127 -24 -12 -6 -42 -10 -65
-9 -30 2 -54 -4 -79 -19 -31 -18 -37 -27 -37 -56 0 -40 -8 -50 -90 -107 -33
-23 -60 -48 -60 -55 0 -8 9 -23 21 -35 20 -20 20 -49 -1 -49 -6 0 -10 -26 -10
-63 l0 -62 70 -77 c68 -74 71 -76 103 -67 17 5 50 8 73 6 23 -1 48 4 55 10 28
23 70 23 100 1 15 -12 43 -21 61 -22 l33 -1 0 -65 c0 -65 16 -106 76 -190 17
-25 17 -27 -8 -75 -30 -58 -31 -90 -3 -120 15 -16 20 -35 20 -75 0 -42 6 -62
26 -92 17 -24 27 -52 28 -80 1 -34 5 -43 19 -42 9 1 17 -2 17 -7 0 -5 -37 -47
-82 -93 -298 -302 -699 -446 -1128 -403 -67 6 -84 9 -161 27 -26 6 -53 13 -60
14 -8 2 -21 6 -29 9 -8 3 -36 13 -63 21 -82 27 -198 86 -300 153 -98 64 -259
212 -313 288 -16 22 -31 42 -35 45 -34 30 -143 230 -176 325 -26 72 -58 187
-67 235 -29 155 -27 381 4 515 7 28 14 60 16 72 11 56 63 196 65 173 1 -14 2
-31 3 -38 0 -7 12 -18 26 -25 21 -11 26 -21 30 -72 9 -95 65 -176 98 -143 13
13 6 33 -23 73 -24 32 -39 101 -25 110 12 7 28 -16 33 -51 3 -17 21 -55 41
-83 26 -38 34 -59 30 -79 -8 -46 26 -84 96 -103 33 -10 60 -13 60 -8 0 5 12 9
26 9 19 0 25 -4 20 -15 -6 -16 15 -28 67 -40 15 -3 40 -20 55 -37 50 -58 61
-64 109 -67 26 -1 48 -3 49 -4 1 -1 4 -21 8 -45 5 -41 4 -44 -29 -63 -19 -12
-36 -28 -36 -37 -1 -10 -3 -33 -4 -53 -1 -21 -5 -41 -9 -47 -3 -6 13 -34 36
-62 48 -58 78 -111 71 -122 -2 -5 3 -8 13 -8 17 0 79 -34 103 -58 10 -9 13
-43 12 -126 0 -90 3 -117 14 -126 11 -9 14 -23 10 -44 -4 -17 -8 -40 -9 -51
-2 -11 7 -32 19 -47 19 -22 22 -37 20 -80 -5 -67 31 -142 96 -203 37 -35 52
-42 80 -41 60 3 65 14 25 52 -30 28 -35 38 -26 54 16 30 12 60 -8 60 -10 0
-23 5 -30 12 -9 9 -7 17 9 34 22 24 19 44 -7 44 -27 0 -9 24 22 31 38 8 97 38
107 56 5 7 30 42 58 78 44 58 48 68 43 102 -3 21 -8 40 -10 42 -2 2 3 16 11
31 13 24 19 27 52 24 56 -5 93 27 99 86 10 108 14 122 42 157 43 56 47 82 13
94 -15 5 -35 23 -45 39 -16 28 -21 30 -75 30 -61 0 -150 25 -156 44 -2 6 -6
25 -8 42 -8 55 -27 74 -74 74 -38 0 -45 4 -72 44 -32 46 -53 60 -67 46 -5 -4
-26 -10 -46 -13 -31 -4 -40 -1 -52 18 -10 15 -29 25 -58 29 -41 7 -45 5 -76
-31 -34 -38 -43 -40 -115 -29 -26 3 -31 13 -35 69 -4 60 -7 64 -47 71 -16 2
-31 5 -32 5 -1 1 5 17 13 37 23 55 5 62 -52 22 -39 -26 -57 -33 -87 -30 -20 2
-35 7 -32 12 3 5 1 11 -5 15 -17 10 -11 55 12 102 32 64 80 87 186 89 85 1 88
-1 83 -43 -1 -7 6 -13 17 -13 10 0 24 -6 31 -12 10 -11 12 -4 9 33 -3 40 1 49
27 73 17 15 43 35 58 43 16 8 35 29 42 47 14 33 106 126 125 126 6 0 32 21 57
46 36 34 52 44 69 40 14 -4 24 -1 28 9 3 10 -1 15 -13 15 -25 0 -33 11 -20 27
15 17 48 17 55 -1 7 -17 63 -13 75 5 8 12 11 11 19 -1 7 -11 5 -18 -6 -26 -13
-11 -13 -14 1 -28 9 -9 22 -16 28 -16 7 0 22 -3 35 -6 18 -5 22 -2 22 15 0 14
-8 23 -24 27 -35 8 -41 32 -11 40 35 9 35 56 0 72 -24 11 -27 19 -28 70 0 26
-5 27 -43 7 -42 -22 -52 -19 -56 17 -3 30 -7 33 -46 41 -63 12 -91 -8 -87 -62
3 -43 -5 -55 -45 -64 -16 -4 -32 -19 -42 -40 -22 -47 -50 -46 -46 2 3 34 1 35
-37 43 -47 10 -75 33 -75 62 0 23 11 32 102 78 58 30 62 30 75 13 17 -24 40
-28 47 -8 3 8 10 11 16 8 6 -4 9 3 7 16 -1 14 4 23 17 25 10 1 29 13 42 25 13
12 24 20 24 17 0 -3 16 -2 35 2 28 6 40 4 58 -10 l22 -18 -28 -13 c-15 -7 -27
-16 -27 -21 0 -4 -9 -8 -20 -8 -11 0 -20 -4 -20 -10 0 -5 5 -10 10 -10 16 0
18 0 65 -15 45 -13 46 -13 55 10 6 15 17 23 34 23 33 0 65 30 45 43 -8 5 -17
9 -21 9 -5 0 -8 11 -8 24 0 19 -12 28 -67 53 -58 25 -75 28 -113 21 -53 -9
-91 -27 -89 -42 5 -41 -2 -53 -26 -48 -18 3 -25 11 -25 28 0 14 6 27 14 30 33
13 23 29 -18 28 -72 -2 -76 -3 -76 -25 0 -11 4 -18 9 -14 5 3 12 1 15 -4 10
-15 -24 -42 -44 -36 -11 3 -20 0 -24 -10 -6 -16 -86 -22 -86 -6 0 5 -2 16 -5
23 -4 10 5 15 31 16 21 2 46 12 61 26 33 31 14 43 -27 17 -37 -22 -67 -17 -93
16 -26 33 -81 31 -132 -4 l-40 -28 38 -3 c33 -3 38 -6 34 -22 -4 -16 2 -19 31
-22 26 -2 38 -8 40 -21 3 -14 -1 -16 -20 -8 -13 4 -29 6 -36 4 -7 -3 -20 1
-28 8 -23 19 -105 46 -133 44 -24 -2 -24 -2 4 21 16 12 40 28 54 36 14 7 29
17 33 23 4 5 8 6 8 2 0 -5 13 1 29 13 32 22 205 97 243 104 12 2 36 9 52 15
16 7 41 13 55 16 14 2 46 7 71 10 25 4 65 10 90 14 48 7 236 5 310 -3z m-902
-329 c-2 -18 -9 -22 -38 -22 -26 1 -36 6 -38 19 -2 10 0 16 5 13 5 -3 14 -2
21 2 6 3 21 7 32 8 16 1 21 -3 18 -20z m2 -72 c0 -10 -11 -15 -35 -15 -56 0
-41 25 18 29 9 0 17 -6 17 -14z m1771 -66 c23 -26 26 -34 16 -50 -7 -11 -21
-19 -32 -20 -11 0 -32 -2 -47 -3 -38 -2 -43 20 -7 34 23 10 29 19 29 41 0 37
7 36 41 -2z m-1661 -90 c0 -10 -9 -23 -20 -29 -17 -9 -22 -7 -29 12 -7 17 -5
26 6 35 20 15 43 6 43 -18z m124 -95 c9 -23 3 -27 -49 -27 -54 0 -67 9 -41 29
27 20 82 18 90 -2z m-669 -13 c-3 -6 -11 -11 -17 -11 -6 0 -6 6 2 15 14 17 26
13 15 -4z m710 -1 c3 -5 2 -10 -4 -10 -5 0 -13 5 -16 10 -3 6 -2 10 4 10 5 0
13 -4 16 -10z m-81 -31 c2 -2 -8 -20 -24 -39 -22 -27 -32 -32 -40 -23 -17 16
16 70 41 68 10 -1 21 -3 23 -6z m86 2 c0 -15 -31 -42 -41 -36 -19 13 -9 41 16
43 14 1 25 -2 25 -7z m50 -12 c0 -6 -4 -7 -10 -4 -5 3 -10 11 -10 16 0 6 5 7
10 4 6 -3 10 -11 10 -16z m9 -33 c9 -11 8 -15 -5 -20 -24 -9 -28 -8 -42 14
-11 18 -10 20 12 20 13 0 29 -6 35 -14z m-69 -13 c0 -17 -18 -34 -38 -38 -16
-3 -22 1 -22 15 0 17 14 26 48 29 6 0 12 -2 12 -6z m1704 -23 c14 -29 14 -30
-8 -30 -17 0 -21 5 -20 28 4 43 7 43 28 2z"/>
<path d="M2158 2413 c-32 -8 -31 -36 4 -65 28 -23 31 -29 18 -38 -8 -5 -17
-10 -20 -10 -3 0 -6 -9 -7 -19 -2 -25 16 -31 62 -21 46 10 63 31 35 44 -19 9
-60 80 -60 104 0 12 -3 13 -32 5z"/>
<path d="M2103 2349 c-23 -8 -43 -38 -43 -63 0 -19 31 -14 64 11 44 31 28 70
-21 52z"/>
<path d="M1385 2180 c-3 -5 -15 -10 -26 -10 -21 0 -23 -8 -10 -29 7 -11 13 -9
30 8 11 11 26 21 32 21 5 0 7 5 4 10 -3 6 -10 10 -15 10 -5 0 -12 -4 -15 -10z"/>
<path d="M1282 2148 c6 -18 28 -21 28 -4 0 9 -7 16 -16 16 -9 0 -14 -5 -12
-12z"/>
</g>
</svg>
